<svg xmlns="http://www.w3.org/2000/svg" width="170" height="60" viewBox="0 0 170 60">
  <g id="fatima-logo" transform="translate(0 -5)">
    <rect id="Rectangle_1" data-name="Rectangle 1" width="170" height="60" transform="translate(0 5)" fill="none"/>
    <g id="g16" transform="translate(-33.327 8.087)">
      <path id="path82" d="M0-18.753l1.1-5.175H4.973l1.656-7.75h7.189l-1.656,7.75h4.51l-1.095,5.175H11.065L7.93-4.071c-.239,1.14-.242,1.85-.014,2.128s1.083.422,2.561.422c.221,0,.457-.007.7-.014s.5-.021.751-.039L10.758,3.857l-3.466.129Q2.117,4.162.638,2.2-.3.95.23-1.649l3.647-17.1Z" transform="translate(91.277 44.149)" fill="#fff"/>
      <path id="path86" d="M-8.542,0h7.368l-5.89,27.785h-7.366Z" transform="translate(121.308 19.965)" fill="#fff"/>
      <path id="path90" d="M-62.946-4.662a6.856,6.856,0,0,1,.816,3.568,26.616,26.616,0,0,1-.613,4.1l-3.771,17.512h-7.444l3.747-17.69a5.628,5.628,0,0,0,.051-2.6q-.56-1.938-3.16-1.937A5.345,5.345,0,0,0-78.01.8a9.368,9.368,0,0,0-1.274,3.183l-3.492,16.545H-90.1L-86.6,3.978A8.793,8.793,0,0,0-86.345.385q-.484-2.01-3.16-2.013A5.391,5.391,0,0,0-94.121.385a9.388,9.388,0,0,0-1.3,3.416l-3.543,16.722h-7.367l5.889-27.735h7.062l-.866,4.054a15.926,15.926,0,0,1,3.21-3.084,10.234,10.234,0,0,1,5.813-1.633,7.419,7.419,0,0,1,4.869,1.405,6.2,6.2,0,0,1,1.684,3.337,12.476,12.476,0,0,1,4.307-3.593,12.273,12.273,0,0,1,5.227-1.15,8.572,8.572,0,0,1,3.466.714,6.1,6.1,0,0,1,2.728,2.5" transform="translate(225.386 27.227)" fill="#fff"/>
      <path id="path94" d="M-10.686-9.731h-7.366l1.425-6.708H-9.26Z" transform="translate(131.035 27.863)" fill="#bd3f4e"/>
      <path id="path98" d="M-21.849-16.755a12.915,12.915,0,0,0,3.033-.638,2.9,2.9,0,0,0,1.988-2.066q.357-1.707-.686-2.357a6.569,6.569,0,0,0-3.342-.65,5.511,5.511,0,0,0-3.925,1.274,7.137,7.137,0,0,0-1.555,2.55h-7.009a13.62,13.62,0,0,1,3.312-5.991Q-26.36-28.3-19.353-28.3a15.305,15.305,0,0,1,7.723,1.811q3.161,1.81,2.093,6.832L-12.265-6.915q-.282,1.327-.61,3.211a3.782,3.782,0,0,0,.009,1.937,1.879,1.879,0,0,0,.882.841l-.2,1.071h-7.9a7.508,7.508,0,0,1-.127-1.58c.018-.5.069-1.054.154-1.684A20.416,20.416,0,0,1-24.118-.342a12.164,12.164,0,0,1-5.609,1.352A7.48,7.48,0,0,1-35.5-1.143q-2-2.152-1.162-6.1a10.34,10.34,0,0,1,5.533-7.416,20.493,20.493,0,0,1,6.756-1.788Zm3.695,3.39a9.415,9.415,0,0,1-1.527.7,14.09,14.09,0,0,1-2.039.5l-1.684.306a12.58,12.58,0,0,0-3.517.992,4.311,4.311,0,0,0-2.319,3.087A2.751,2.751,0,0,0-28.8-5.093a3.212,3.212,0,0,0,2.333.829,8.792,8.792,0,0,0,4.614-1.377q2.266-1.375,3.134-5.022Z" transform="translate(98.981 47.198)" fill="#fff"/>
      <path id="path102" d="M-21.843-16.755a12.863,12.863,0,0,0,3.033-.638,2.9,2.9,0,0,0,1.99-2.066q.357-1.707-.688-2.357a6.543,6.543,0,0,0-3.338-.65,5.516,5.516,0,0,0-3.927,1.274,7.215,7.215,0,0,0-1.555,2.55h-7.009a13.631,13.631,0,0,1,3.313-5.991q3.669-3.67,10.682-3.672a15.3,15.3,0,0,1,7.721,1.811q3.161,1.81,2.092,6.832L-12.257-6.915q-.28,1.327-.61,3.211a3.754,3.754,0,0,0,.012,1.937,1.861,1.861,0,0,0,.877.841l-.2,1.071h-7.905a7.58,7.58,0,0,1-.127-1.58c.018-.5.07-1.054.155-1.684A20.439,20.439,0,0,1-24.11-.342a12.161,12.161,0,0,1-5.609,1.352,7.484,7.484,0,0,1-5.772-2.154q-2-2.152-1.158-6.1a10.335,10.335,0,0,1,5.529-7.416,20.55,20.55,0,0,1,6.758-1.788Zm3.7,3.39a9.247,9.247,0,0,1-1.529.7,13.978,13.978,0,0,1-2.036.5l-1.684.306a12.58,12.58,0,0,0-3.517.992,4.32,4.32,0,0,0-2.32,3.087,2.75,2.75,0,0,0,.447,2.688,3.2,3.2,0,0,0,2.331.829,8.787,8.787,0,0,0,4.612-1.377q2.274-1.375,3.137-5.022Z" transform="translate(200.747 47.198)" fill="#fff"/>
      <path id="path106" d="M-1.721,0-2.907,5.429H14.676L26.191,0Z" transform="translate(93.803 19.965)" fill="#fff"/>
      <path id="path110" d="M0-67.932l10.138-5.609,4.654-21.992h5.894l1.354-6.334H16.146q.408-1.893.631-2.9a3.436,3.436,0,0,1,1.055-1.845,3.529,3.529,0,0,1,2.633-.786q1.765.046,2.49.141l1.576-7.313c-.8-.06-1.423-.11-1.875-.14s-.962-.046-1.529-.046q-7.47,0-10.087,3.086-2.3,2.08-3.467,7.6L7.1-101.867H2.185L.829-95.533H5.841Z" transform="translate(45.164 118.257)" fill="#fff"/>
      <path id="path114" d="M-7.179-7.416s8.5-5.088,13.787-4.633A44.7,44.7,0,0,0-12.128-10.84" transform="translate(62.52 52.132)" fill="#fff"/>
    </g>
  </g>
</svg>
